<mxfile host="65bd71144e">
    <diagram id="pH3nRYkegncTpKT20pK_" name="Большой вариант">
        <mxGraphModel dx="1404" dy="779" grid="1" gridSize="10" guides="1" tooltips="1" connect="1" arrows="1" fold="1" page="1" pageScale="1" pageWidth="827" pageHeight="1169" math="0" shadow="0">
            <root>
                <mxCell id="0"/>
                <mxCell id="1" parent="0"/>
                <mxCell id="U-kBuVLFLors2HC2WmOx-1" value="Транспорт" style="rounded=0;whiteSpace=wrap;html=1;fillColor=#d5e8d4;strokeColor=#82b366;" parent="1" vertex="1">
                    <mxGeometry x="600" y="240" width="170" height="80" as="geometry"/>
                </mxCell>
                <mxCell id="U-kBuVLFLors2HC2WmOx-2" value="Грузоотправитель" style="rounded=0;whiteSpace=wrap;html=1;fillColor=#d5e8d4;strokeColor=#82b366;" parent="1" vertex="1">
                    <mxGeometry x="227.5" y="700" width="120" height="60" as="geometry"/>
                </mxCell>
                <mxCell id="U-kBuVLFLors2HC2WmOx-3" value="Грузополучатель" style="rounded=0;whiteSpace=wrap;html=1;fillColor=#d5e8d4;strokeColor=#82b366;" parent="1" vertex="1">
                    <mxGeometry x="600" y="465" width="120" height="60" as="geometry"/>
                </mxCell>
                <mxCell id="U-kBuVLFLors2HC2WmOx-4" value="Перевозки" style="rounded=0;whiteSpace=wrap;html=1;fillColor=#d5e8d4;strokeColor=#82b366;" parent="1" vertex="1">
                    <mxGeometry x="597.5" y="695" width="120" height="60" as="geometry"/>
                </mxCell>
                <mxCell id="U-kBuVLFLors2HC2WmOx-5" value="Водитель" style="rounded=0;whiteSpace=wrap;html=1;fillColor=#d5e8d4;strokeColor=#82b366;" parent="1" vertex="1">
                    <mxGeometry x="240" y="240" width="130" height="80" as="geometry"/>
                </mxCell>
                <mxCell id="U-kBuVLFLors2HC2WmOx-6" value="Оплата&lt;div&gt;&lt;br&gt;&lt;/div&gt;" style="rounded=0;whiteSpace=wrap;html=1;fillColor=#d5e8d4;strokeColor=#82b366;" parent="1" vertex="1">
                    <mxGeometry x="970" y="700" width="120" height="60" as="geometry"/>
                </mxCell>
                <mxCell id="U-kBuVLFLors2HC2WmOx-7" value="&lt;u&gt;Номер&lt;/u&gt;" style="ellipse;whiteSpace=wrap;html=1;fillColor=#f8cecc;strokeColor=#b85450;" parent="1" vertex="1">
                    <mxGeometry x="580" y="100" width="90" height="40" as="geometry"/>
                </mxCell>
                <mxCell id="U-kBuVLFLors2HC2WmOx-8" value="Дата ТО" style="ellipse;whiteSpace=wrap;html=1;fillColor=#f8cecc;strokeColor=#b85450;" parent="1" vertex="1">
                    <mxGeometry x="480" y="150" width="80" height="50" as="geometry"/>
                </mxCell>
                <mxCell id="U-kBuVLFLors2HC2WmOx-9" style="edgeStyle=orthogonalEdgeStyle;rounded=0;orthogonalLoop=1;jettySize=auto;html=1;exitX=0.5;exitY=0;exitDx=0;exitDy=0;entryX=0.5;entryY=0;entryDx=0;entryDy=0;" parent="1" source="U-kBuVLFLors2HC2WmOx-10" target="U-kBuVLFLors2HC2WmOx-10" edge="1">
                    <mxGeometry relative="1" as="geometry">
                        <mxPoint x="680" y="110" as="targetPoint"/>
                    </mxGeometry>
                </mxCell>
                <mxCell id="U-kBuVLFLors2HC2WmOx-10" value="ФИО водителя" style="ellipse;whiteSpace=wrap;html=1;fillColor=#f8cecc;strokeColor=#b85450;" parent="1" vertex="1">
                    <mxGeometry x="800" y="130" width="80" height="40" as="geometry"/>
                </mxCell>
                <mxCell id="U-kBuVLFLors2HC2WmOx-11" value="Грузоподъёмность" style="ellipse;whiteSpace=wrap;html=1;fillColor=#f8cecc;strokeColor=#b85450;" parent="1" vertex="1">
                    <mxGeometry x="860" y="180" width="120" height="60" as="geometry"/>
                </mxCell>
                <mxCell id="U-kBuVLFLors2HC2WmOx-12" value="" style="endArrow=none;html=1;rounded=0;exitX=1;exitY=1;exitDx=0;exitDy=0;entryX=0.047;entryY=0.013;entryDx=0;entryDy=0;entryPerimeter=0;" parent="1" source="U-kBuVLFLors2HC2WmOx-8" target="U-kBuVLFLors2HC2WmOx-1" edge="1">
                    <mxGeometry width="50" height="50" relative="1" as="geometry">
                        <mxPoint x="510" y="100" as="sourcePoint"/>
                        <mxPoint x="560" y="50" as="targetPoint"/>
                    </mxGeometry>
                </mxCell>
                <mxCell id="U-kBuVLFLors2HC2WmOx-13" value="" style="endArrow=none;html=1;rounded=0;exitX=0.925;exitY=0.788;exitDx=0;exitDy=0;entryX=0.694;entryY=-0.025;entryDx=0;entryDy=0;exitPerimeter=0;entryPerimeter=0;" parent="1" source="U-kBuVLFLors2HC2WmOx-7" target="U-kBuVLFLors2HC2WmOx-1" edge="1">
                    <mxGeometry width="50" height="50" relative="1" as="geometry">
                        <mxPoint x="550" y="30" as="sourcePoint"/>
                        <mxPoint x="600" y="-20" as="targetPoint"/>
                    </mxGeometry>
                </mxCell>
                <mxCell id="U-kBuVLFLors2HC2WmOx-14" value="" style="endArrow=none;html=1;rounded=0;exitX=0.5;exitY=1;exitDx=0;exitDy=0;entryX=1;entryY=0;entryDx=0;entryDy=0;" parent="1" source="U-kBuVLFLors2HC2WmOx-10" target="U-kBuVLFLors2HC2WmOx-1" edge="1">
                    <mxGeometry width="50" height="50" relative="1" as="geometry">
                        <mxPoint x="720" y="120" as="sourcePoint"/>
                        <mxPoint x="770" y="70" as="targetPoint"/>
                    </mxGeometry>
                </mxCell>
                <mxCell id="U-kBuVLFLors2HC2WmOx-15" value="" style="endArrow=none;html=1;rounded=0;entryX=1;entryY=0.5;entryDx=0;entryDy=0;" parent="1" source="U-kBuVLFLors2HC2WmOx-11" target="U-kBuVLFLors2HC2WmOx-1" edge="1">
                    <mxGeometry width="50" height="50" relative="1" as="geometry">
                        <mxPoint x="810" y="90" as="sourcePoint"/>
                        <mxPoint x="810" y="30" as="targetPoint"/>
                    </mxGeometry>
                </mxCell>
                <mxCell id="U-kBuVLFLors2HC2WmOx-16" value="Управляет" style="rhombus;whiteSpace=wrap;html=1;fillColor=#e1d5e7;strokeColor=#9673a6;" parent="1" vertex="1">
                    <mxGeometry x="440" y="250" width="90" height="60" as="geometry"/>
                </mxCell>
                <mxCell id="U-kBuVLFLors2HC2WmOx-17" value="" style="endArrow=none;html=1;rounded=0;exitX=1;exitY=0.5;exitDx=0;exitDy=0;entryX=0;entryY=0.5;entryDx=0;entryDy=0;" parent="1" source="U-kBuVLFLors2HC2WmOx-5" target="U-kBuVLFLors2HC2WmOx-16" edge="1">
                    <mxGeometry width="50" height="50" relative="1" as="geometry">
                        <mxPoint x="480" y="410" as="sourcePoint"/>
                        <mxPoint x="530" y="360" as="targetPoint"/>
                    </mxGeometry>
                </mxCell>
                <mxCell id="U-kBuVLFLors2HC2WmOx-18" value="" style="endArrow=none;html=1;rounded=0;exitX=1;exitY=0.5;exitDx=0;exitDy=0;entryX=0;entryY=0.5;entryDx=0;entryDy=0;" parent="1" source="U-kBuVLFLors2HC2WmOx-16" target="U-kBuVLFLors2HC2WmOx-1" edge="1">
                    <mxGeometry width="50" height="50" relative="1" as="geometry">
                        <mxPoint x="520" y="320" as="sourcePoint"/>
                        <mxPoint x="570" y="270" as="targetPoint"/>
                    </mxGeometry>
                </mxCell>
                <mxCell id="U-kBuVLFLors2HC2WmOx-19" value="Контактаня информация" style="ellipse;whiteSpace=wrap;html=1;fillColor=#f8cecc;strokeColor=#b85450;" parent="1" vertex="1">
                    <mxGeometry x="250" y="90" width="100" height="50" as="geometry"/>
                </mxCell>
                <mxCell id="U-kBuVLFLors2HC2WmOx-20" value="ФИО" style="ellipse;whiteSpace=wrap;html=1;fillColor=#f8cecc;strokeColor=#b85450;" parent="1" vertex="1">
                    <mxGeometry x="160" y="140" width="80" height="50" as="geometry"/>
                </mxCell>
                <mxCell id="U-kBuVLFLors2HC2WmOx-21" value="" style="endArrow=none;html=1;rounded=0;exitX=0;exitY=0;exitDx=0;exitDy=0;entryX=0.617;entryY=1;entryDx=0;entryDy=0;entryPerimeter=0;" parent="1" source="U-kBuVLFLors2HC2WmOx-5" target="U-kBuVLFLors2HC2WmOx-20" edge="1">
                    <mxGeometry width="50" height="50" relative="1" as="geometry">
                        <mxPoint x="210" y="250" as="sourcePoint"/>
                        <mxPoint x="260" y="200" as="targetPoint"/>
                    </mxGeometry>
                </mxCell>
                <mxCell id="U-kBuVLFLors2HC2WmOx-22" value="" style="endArrow=none;html=1;rounded=0;exitX=0.5;exitY=0;exitDx=0;exitDy=0;entryX=0.5;entryY=1;entryDx=0;entryDy=0;" parent="1" source="U-kBuVLFLors2HC2WmOx-5" target="U-kBuVLFLors2HC2WmOx-19" edge="1">
                    <mxGeometry width="50" height="50" relative="1" as="geometry">
                        <mxPoint x="380" y="250" as="sourcePoint"/>
                        <mxPoint x="430" y="200" as="targetPoint"/>
                    </mxGeometry>
                </mxCell>
                <mxCell id="U-kBuVLFLors2HC2WmOx-23" value="&lt;span style=&quot;font-size: 18px;&quot;&gt;N&lt;/span&gt;" style="text;html=1;align=center;verticalAlign=middle;resizable=0;points=[];autosize=1;strokeColor=none;fillColor=none;" parent="1" vertex="1">
                    <mxGeometry x="375" y="235" width="40" height="40" as="geometry"/>
                </mxCell>
                <mxCell id="U-kBuVLFLors2HC2WmOx-24" value="&lt;font style=&quot;font-size: 18px;&quot;&gt;1&lt;/font&gt;" style="text;html=1;align=center;verticalAlign=middle;resizable=0;points=[];autosize=1;strokeColor=none;fillColor=none;" parent="1" vertex="1">
                    <mxGeometry x="550" y="235" width="30" height="40" as="geometry"/>
                </mxCell>
                <mxCell id="U-kBuVLFLors2HC2WmOx-25" value="&lt;u&gt;Расчётный счёт&lt;/u&gt;" style="ellipse;whiteSpace=wrap;html=1;fillColor=#f8cecc;strokeColor=#b85450;" parent="1" vertex="1">
                    <mxGeometry x="90" y="700" width="87.5" height="70" as="geometry"/>
                </mxCell>
                <mxCell id="U-kBuVLFLors2HC2WmOx-26" value="Наименование" style="ellipse;whiteSpace=wrap;html=1;fillColor=#f8cecc;strokeColor=#b85450;" parent="1" vertex="1">
                    <mxGeometry x="250" y="585" width="100" height="50" as="geometry"/>
                </mxCell>
                <mxCell id="U-kBuVLFLors2HC2WmOx-27" value="Адрес" style="ellipse;whiteSpace=wrap;html=1;fillColor=#f8cecc;strokeColor=#b85450;" parent="1" vertex="1">
                    <mxGeometry x="110" y="620" width="67.5" height="50" as="geometry"/>
                </mxCell>
                <mxCell id="U-kBuVLFLors2HC2WmOx-28" value="" style="endArrow=none;html=1;rounded=0;exitX=1.008;exitY=0.413;exitDx=0;exitDy=0;exitPerimeter=0;entryX=-0.008;entryY=0.633;entryDx=0;entryDy=0;entryPerimeter=0;" parent="1" source="U-kBuVLFLors2HC2WmOx-25" target="U-kBuVLFLors2HC2WmOx-2" edge="1">
                    <mxGeometry width="50" height="50" relative="1" as="geometry">
                        <mxPoint x="177.5" y="820" as="sourcePoint"/>
                        <mxPoint x="227.5" y="770" as="targetPoint"/>
                    </mxGeometry>
                </mxCell>
                <mxCell id="U-kBuVLFLors2HC2WmOx-29" value="" style="endArrow=none;html=1;rounded=0;exitX=0.942;exitY=0.75;exitDx=0;exitDy=0;exitPerimeter=0;entryX=0.125;entryY=-0.033;entryDx=0;entryDy=0;entryPerimeter=0;" parent="1" source="U-kBuVLFLors2HC2WmOx-27" target="U-kBuVLFLors2HC2WmOx-2" edge="1">
                    <mxGeometry width="50" height="50" relative="1" as="geometry">
                        <mxPoint x="197.5" y="670" as="sourcePoint"/>
                        <mxPoint x="247.5" y="620" as="targetPoint"/>
                    </mxGeometry>
                </mxCell>
                <mxCell id="U-kBuVLFLors2HC2WmOx-30" value="" style="endArrow=none;html=1;rounded=0;exitX=0.5;exitY=0;exitDx=0;exitDy=0;entryX=0.425;entryY=1;entryDx=0;entryDy=0;entryPerimeter=0;" parent="1" source="U-kBuVLFLors2HC2WmOx-2" target="U-kBuVLFLors2HC2WmOx-26" edge="1">
                    <mxGeometry width="50" height="50" relative="1" as="geometry">
                        <mxPoint x="357.5" y="740" as="sourcePoint"/>
                        <mxPoint x="407.5" y="690" as="targetPoint"/>
                    </mxGeometry>
                </mxCell>
                <mxCell id="U-kBuVLFLors2HC2WmOx-31" value="&lt;u&gt;Расчётный счёт&lt;/u&gt;" style="ellipse;whiteSpace=wrap;html=1;fillColor=#f8cecc;strokeColor=#b85450;" parent="1" vertex="1">
                    <mxGeometry x="760" y="505" width="90" height="65" as="geometry"/>
                </mxCell>
                <mxCell id="U-kBuVLFLors2HC2WmOx-32" value="Наименование" style="ellipse;whiteSpace=wrap;html=1;fillColor=#f8cecc;strokeColor=#b85450;" parent="1" vertex="1">
                    <mxGeometry x="770" y="430" width="100" height="55" as="geometry"/>
                </mxCell>
                <mxCell id="U-kBuVLFLors2HC2WmOx-33" value="Адрес" style="ellipse;whiteSpace=wrap;html=1;fillColor=#f8cecc;strokeColor=#b85450;" parent="1" vertex="1">
                    <mxGeometry x="607.5" y="360" width="85" height="45" as="geometry"/>
                </mxCell>
                <mxCell id="U-kBuVLFLors2HC2WmOx-34" value="" style="endArrow=none;html=1;rounded=0;exitX=0.017;exitY=0.388;exitDx=0;exitDy=0;entryX=1;entryY=1;entryDx=0;entryDy=0;exitPerimeter=0;" parent="1" source="U-kBuVLFLors2HC2WmOx-31" target="U-kBuVLFLors2HC2WmOx-3" edge="1">
                    <mxGeometry width="50" height="50" relative="1" as="geometry">
                        <mxPoint x="630" y="585" as="sourcePoint"/>
                        <mxPoint x="679" y="503" as="targetPoint"/>
                    </mxGeometry>
                </mxCell>
                <mxCell id="U-kBuVLFLors2HC2WmOx-35" value="" style="endArrow=none;html=1;rounded=0;exitX=0.633;exitY=0.963;exitDx=0;exitDy=0;exitPerimeter=0;entryX=0.5;entryY=0;entryDx=0;entryDy=0;" parent="1" source="U-kBuVLFLors2HC2WmOx-33" target="U-kBuVLFLors2HC2WmOx-3" edge="1">
                    <mxGeometry width="50" height="50" relative="1" as="geometry">
                        <mxPoint x="650" y="435" as="sourcePoint"/>
                        <mxPoint x="695" y="463" as="targetPoint"/>
                    </mxGeometry>
                </mxCell>
                <mxCell id="U-kBuVLFLors2HC2WmOx-36" value="" style="endArrow=none;html=1;rounded=0;exitX=1;exitY=0.5;exitDx=0;exitDy=0;entryX=0;entryY=0.5;entryDx=0;entryDy=0;" parent="1" source="U-kBuVLFLors2HC2WmOx-3" target="U-kBuVLFLors2HC2WmOx-32" edge="1">
                    <mxGeometry width="50" height="50" relative="1" as="geometry">
                        <mxPoint x="740" y="465" as="sourcePoint"/>
                        <mxPoint x="860" y="455" as="targetPoint"/>
                    </mxGeometry>
                </mxCell>
                <mxCell id="U-kBuVLFLors2HC2WmOx-37" value="&lt;font style=&quot;font-size: 18px;&quot;&gt;1&lt;/font&gt;" style="text;html=1;align=center;verticalAlign=middle;resizable=0;points=[];autosize=1;strokeColor=none;fillColor=none;" parent="1" vertex="1">
                    <mxGeometry x="357.5" y="680" width="30" height="40" as="geometry"/>
                </mxCell>
                <mxCell id="U-kBuVLFLors2HC2WmOx-38" value="Сторона доставки" style="ellipse;whiteSpace=wrap;html=1;fillColor=#f8cecc;strokeColor=#b85450;" parent="1" vertex="1">
                    <mxGeometry x="410" y="790" width="80" height="60" as="geometry"/>
                </mxCell>
                <mxCell id="U-kBuVLFLors2HC2WmOx-39" value="Сторона перевозки" style="ellipse;whiteSpace=wrap;html=1;fillColor=#f8cecc;strokeColor=#b85450;" parent="1" vertex="1">
                    <mxGeometry x="510" y="820" width="87.5" height="60" as="geometry"/>
                </mxCell>
                <mxCell id="U-kBuVLFLors2HC2WmOx-40" value="Сведения об оплата" style="ellipse;whiteSpace=wrap;html=1;fillColor=#f8cecc;strokeColor=#b85450;" parent="1" vertex="1">
                    <mxGeometry x="700" y="795" width="90" height="65" as="geometry"/>
                </mxCell>
                <mxCell id="U-kBuVLFLors2HC2WmOx-41" value="Дата доставки" style="ellipse;whiteSpace=wrap;html=1;fillColor=#f8cecc;strokeColor=#b85450;" parent="1" vertex="1">
                    <mxGeometry x="810" y="770" width="80" height="50" as="geometry"/>
                </mxCell>
                <mxCell id="U-kBuVLFLors2HC2WmOx-42" value="Дата погрузки" style="ellipse;whiteSpace=wrap;html=1;fillColor=#f8cecc;strokeColor=#b85450;" parent="1" vertex="1">
                    <mxGeometry x="740" y="620" width="87.5" height="60" as="geometry"/>
                </mxCell>
                <mxCell id="U-kBuVLFLors2HC2WmOx-43" value="" style="endArrow=none;html=1;rounded=0;entryX=0.213;entryY=0.888;entryDx=0;entryDy=0;entryPerimeter=0;exitX=1;exitY=0;exitDx=0;exitDy=0;" parent="1" source="U-kBuVLFLors2HC2WmOx-4" target="U-kBuVLFLors2HC2WmOx-42" edge="1">
                    <mxGeometry width="50" height="50" relative="1" as="geometry">
                        <mxPoint x="637.5" y="750" as="sourcePoint"/>
                        <mxPoint x="687.5" y="700" as="targetPoint"/>
                    </mxGeometry>
                </mxCell>
                <mxCell id="U-kBuVLFLors2HC2WmOx-44" value="" style="endArrow=none;html=1;rounded=0;entryX=0;entryY=0.5;entryDx=0;entryDy=0;exitX=1;exitY=1;exitDx=0;exitDy=0;" parent="1" source="U-kBuVLFLors2HC2WmOx-4" target="U-kBuVLFLors2HC2WmOx-41" edge="1">
                    <mxGeometry width="50" height="50" relative="1" as="geometry">
                        <mxPoint x="618.5" y="705" as="sourcePoint"/>
                        <mxPoint x="608.5" y="682" as="targetPoint"/>
                    </mxGeometry>
                </mxCell>
                <mxCell id="U-kBuVLFLors2HC2WmOx-45" value="" style="endArrow=none;html=1;rounded=0;entryX=0.229;entryY=0.075;entryDx=0;entryDy=0;entryPerimeter=0;exitX=0.75;exitY=1;exitDx=0;exitDy=0;" parent="1" source="U-kBuVLFLors2HC2WmOx-4" target="U-kBuVLFLors2HC2WmOx-40" edge="1">
                    <mxGeometry width="50" height="50" relative="1" as="geometry">
                        <mxPoint x="645.5" y="702" as="sourcePoint"/>
                        <mxPoint x="682.5" y="664" as="targetPoint"/>
                    </mxGeometry>
                </mxCell>
                <mxCell id="U-kBuVLFLors2HC2WmOx-46" value="" style="endArrow=none;html=1;rounded=0;exitX=0.25;exitY=1;exitDx=0;exitDy=0;" parent="1" source="U-kBuVLFLors2HC2WmOx-4" target="U-kBuVLFLors2HC2WmOx-39" edge="1">
                    <mxGeometry width="50" height="50" relative="1" as="geometry">
                        <mxPoint x="736.5" y="765" as="sourcePoint"/>
                        <mxPoint x="777.5" y="750" as="targetPoint"/>
                    </mxGeometry>
                </mxCell>
                <mxCell id="U-kBuVLFLors2HC2WmOx-47" value="" style="endArrow=none;html=1;rounded=0;exitX=0;exitY=1;exitDx=0;exitDy=0;entryX=1;entryY=0;entryDx=0;entryDy=0;" parent="1" source="U-kBuVLFLors2HC2WmOx-4" target="U-kBuVLFLors2HC2WmOx-38" edge="1">
                    <mxGeometry width="50" height="50" relative="1" as="geometry">
                        <mxPoint x="728.5" y="762" as="sourcePoint"/>
                        <mxPoint x="793.5" y="783" as="targetPoint"/>
                    </mxGeometry>
                </mxCell>
                <mxCell id="U-kBuVLFLors2HC2WmOx-48" value="&lt;span style=&quot;font-size: 18px;&quot;&gt;N&lt;/span&gt;" style="text;html=1;align=center;verticalAlign=middle;resizable=0;points=[];autosize=1;strokeColor=none;fillColor=none;" parent="1" vertex="1">
                    <mxGeometry x="552.5" y="675" width="40" height="40" as="geometry"/>
                </mxCell>
                <mxCell id="U-kBuVLFLors2HC2WmOx-49" value="Получает" style="shape=rhombus;perimeter=rhombusPerimeter;whiteSpace=wrap;html=1;align=center;fillColor=#e1d5e7;strokeColor=#9673a6;" parent="1" vertex="1">
                    <mxGeometry x="600" y="570" width="120" height="60" as="geometry"/>
                </mxCell>
                <mxCell id="U-kBuVLFLors2HC2WmOx-50" value="" style="endArrow=none;html=1;rounded=0;entryX=0.5;entryY=1;entryDx=0;entryDy=0;exitX=0.5;exitY=0;exitDx=0;exitDy=0;" parent="1" source="U-kBuVLFLors2HC2WmOx-49" target="U-kBuVLFLors2HC2WmOx-3" edge="1">
                    <mxGeometry width="50" height="50" relative="1" as="geometry">
                        <mxPoint x="710" y="570" as="sourcePoint"/>
                        <mxPoint x="760" y="520" as="targetPoint"/>
                    </mxGeometry>
                </mxCell>
                <mxCell id="U-kBuVLFLors2HC2WmOx-51" value="" style="endArrow=none;html=1;rounded=0;entryX=0.5;entryY=1;entryDx=0;entryDy=0;" parent="1" target="U-kBuVLFLors2HC2WmOx-49" edge="1">
                    <mxGeometry width="50" height="50" relative="1" as="geometry">
                        <mxPoint x="658" y="695" as="sourcePoint"/>
                        <mxPoint x="640" y="630" as="targetPoint"/>
                    </mxGeometry>
                </mxCell>
                <mxCell id="U-kBuVLFLors2HC2WmOx-52" value="&lt;font style=&quot;font-size: 18px;&quot;&gt;1&lt;/font&gt;" style="text;html=1;align=center;verticalAlign=middle;resizable=0;points=[];autosize=1;strokeColor=none;fillColor=none;" parent="1" vertex="1">
                    <mxGeometry x="657.5" y="525" width="30" height="40" as="geometry"/>
                </mxCell>
                <mxCell id="U-kBuVLFLors2HC2WmOx-53" value="&lt;span style=&quot;font-size: 18px;&quot;&gt;N&lt;/span&gt;" style="text;html=1;align=center;verticalAlign=middle;resizable=0;points=[];autosize=1;strokeColor=none;fillColor=none;" parent="1" vertex="1">
                    <mxGeometry x="652.5" y="655" width="40" height="40" as="geometry"/>
                </mxCell>
                <mxCell id="U-kBuVLFLors2HC2WmOx-54" value="Отправляет" style="shape=rhombus;perimeter=rhombusPerimeter;whiteSpace=wrap;html=1;align=center;fillColor=#e1d5e7;strokeColor=#9673a6;" parent="1" vertex="1">
                    <mxGeometry x="410" y="700" width="120" height="60" as="geometry"/>
                </mxCell>
                <mxCell id="U-kBuVLFLors2HC2WmOx-55" value="" style="endArrow=none;html=1;rounded=0;exitX=1;exitY=0.5;exitDx=0;exitDy=0;entryX=0;entryY=0.5;entryDx=0;entryDy=0;" parent="1" source="U-kBuVLFLors2HC2WmOx-2" target="U-kBuVLFLors2HC2WmOx-54" edge="1">
                    <mxGeometry width="50" height="50" relative="1" as="geometry">
                        <mxPoint x="350" y="760" as="sourcePoint"/>
                        <mxPoint x="400" y="710" as="targetPoint"/>
                    </mxGeometry>
                </mxCell>
                <mxCell id="U-kBuVLFLors2HC2WmOx-56" value="" style="endArrow=none;html=1;rounded=0;exitX=1;exitY=0.5;exitDx=0;exitDy=0;entryX=0;entryY=0.5;entryDx=0;entryDy=0;" parent="1" source="U-kBuVLFLors2HC2WmOx-54" target="U-kBuVLFLors2HC2WmOx-4" edge="1">
                    <mxGeometry width="50" height="50" relative="1" as="geometry">
                        <mxPoint x="518" y="690" as="sourcePoint"/>
                        <mxPoint x="580" y="690" as="targetPoint"/>
                    </mxGeometry>
                </mxCell>
                <mxCell id="U-kBuVLFLors2HC2WmOx-57" value="&lt;div&gt;Включает&lt;/div&gt;" style="shape=rhombus;perimeter=rhombusPerimeter;whiteSpace=wrap;html=1;align=center;fillColor=#e1d5e7;strokeColor=#9673a6;" parent="1" vertex="1">
                    <mxGeometry x="790" y="695" width="105" height="60" as="geometry"/>
                </mxCell>
                <mxCell id="U-kBuVLFLors2HC2WmOx-58" value="" style="endArrow=none;html=1;rounded=0;exitX=1;exitY=0.5;exitDx=0;exitDy=0;" parent="1" source="U-kBuVLFLors2HC2WmOx-4" target="U-kBuVLFLors2HC2WmOx-57" edge="1">
                    <mxGeometry width="50" height="50" relative="1" as="geometry">
                        <mxPoint x="730" y="750" as="sourcePoint"/>
                        <mxPoint x="780" y="700" as="targetPoint"/>
                    </mxGeometry>
                </mxCell>
                <mxCell id="U-kBuVLFLors2HC2WmOx-59" value="" style="endArrow=none;html=1;rounded=0;exitX=1;exitY=0.5;exitDx=0;exitDy=0;entryX=0.006;entryY=0.394;entryDx=0;entryDy=0;entryPerimeter=0;" parent="1" source="U-kBuVLFLors2HC2WmOx-57" target="U-kBuVLFLors2HC2WmOx-6" edge="1">
                    <mxGeometry width="50" height="50" relative="1" as="geometry">
                        <mxPoint x="880" y="694.31" as="sourcePoint"/>
                        <mxPoint x="952" y="694.31" as="targetPoint"/>
                    </mxGeometry>
                </mxCell>
                <mxCell id="U-kBuVLFLors2HC2WmOx-60" value="Сумма оплаты" style="ellipse;whiteSpace=wrap;html=1;fillColor=#f8cecc;strokeColor=#b85450;" parent="1" vertex="1">
                    <mxGeometry x="960" y="790" width="80" height="50" as="geometry"/>
                </mxCell>
                <mxCell id="U-kBuVLFLors2HC2WmOx-61" value="дата оплаты" style="ellipse;whiteSpace=wrap;html=1;fillColor=#f8cecc;strokeColor=#b85450;" parent="1" vertex="1">
                    <mxGeometry x="1100" y="770" width="80" height="50" as="geometry"/>
                </mxCell>
                <mxCell id="U-kBuVLFLors2HC2WmOx-62" value="" style="endArrow=none;html=1;rounded=0;exitX=0.5;exitY=0;exitDx=0;exitDy=0;entryX=0.351;entryY=0.98;entryDx=0;entryDy=0;entryPerimeter=0;" parent="1" source="U-kBuVLFLors2HC2WmOx-60" target="U-kBuVLFLors2HC2WmOx-6" edge="1">
                    <mxGeometry width="50" height="50" relative="1" as="geometry">
                        <mxPoint x="1040" y="890" as="sourcePoint"/>
                        <mxPoint x="1090" y="840" as="targetPoint"/>
                    </mxGeometry>
                </mxCell>
                <mxCell id="U-kBuVLFLors2HC2WmOx-63" value="" style="endArrow=none;html=1;rounded=0;entryX=0.926;entryY=1.003;entryDx=0;entryDy=0;entryPerimeter=0;" parent="1" source="U-kBuVLFLors2HC2WmOx-61" target="U-kBuVLFLors2HC2WmOx-6" edge="1">
                    <mxGeometry width="50" height="50" relative="1" as="geometry">
                        <mxPoint x="1078" y="840" as="sourcePoint"/>
                        <mxPoint x="1090" y="789" as="targetPoint"/>
                    </mxGeometry>
                </mxCell>
                <mxCell id="U-kBuVLFLors2HC2WmOx-64" value="&lt;font style=&quot;font-size: 18px;&quot;&gt;1&lt;/font&gt;" style="text;html=1;align=center;verticalAlign=middle;resizable=0;points=[];autosize=1;strokeColor=none;fillColor=none;" parent="1" vertex="1">
                    <mxGeometry x="720" y="690" width="30" height="40" as="geometry"/>
                </mxCell>
                <mxCell id="U-kBuVLFLors2HC2WmOx-65" value="&lt;span style=&quot;font-size: 18px;&quot;&gt;N&lt;/span&gt;" style="text;html=1;align=center;verticalAlign=middle;resizable=0;points=[];autosize=1;strokeColor=none;fillColor=none;" parent="1" vertex="1">
                    <mxGeometry x="920" y="680" width="40" height="40" as="geometry"/>
                </mxCell>
                <mxCell id="U-kBuVLFLors2HC2WmOx-66" value="&lt;u&gt;Номер ВУ&lt;/u&gt;" style="ellipse;whiteSpace=wrap;html=1;fillColor=#f8cecc;strokeColor=#b85450;" parent="1" vertex="1">
                    <mxGeometry x="80" y="190" width="80" height="50" as="geometry"/>
                </mxCell>
                <mxCell id="U-kBuVLFLors2HC2WmOx-67" value="" style="endArrow=none;html=1;rounded=0;exitX=0;exitY=0.5;exitDx=0;exitDy=0;entryX=1;entryY=0.8;entryDx=0;entryDy=0;entryPerimeter=0;" parent="1" source="U-kBuVLFLors2HC2WmOx-5" target="U-kBuVLFLors2HC2WmOx-66" edge="1">
                    <mxGeometry width="50" height="50" relative="1" as="geometry">
                        <mxPoint x="250" y="250" as="sourcePoint"/>
                        <mxPoint x="190" y="250" as="targetPoint"/>
                    </mxGeometry>
                </mxCell>
                <mxCell id="Cw069byiY2gqhYTwoMly-1" value="&lt;div&gt;Содержит&lt;/div&gt;" style="shape=rhombus;perimeter=rhombusPerimeter;whiteSpace=wrap;html=1;align=center;fillColor=#e1d5e7;strokeColor=#9673a6;" parent="1" vertex="1">
                    <mxGeometry x="617.5" y="810" width="80" height="90" as="geometry"/>
                </mxCell>
                <mxCell id="Cw069byiY2gqhYTwoMly-2" value="" style="endArrow=none;html=1;rounded=0;entryX=0.5;entryY=1;entryDx=0;entryDy=0;exitX=0.5;exitY=0;exitDx=0;exitDy=0;" parent="1" source="Cw069byiY2gqhYTwoMly-1" target="U-kBuVLFLors2HC2WmOx-4" edge="1">
                    <mxGeometry width="50" height="50" relative="1" as="geometry">
                        <mxPoint x="649" y="840" as="sourcePoint"/>
                        <mxPoint x="651" y="775" as="targetPoint"/>
                    </mxGeometry>
                </mxCell>
                <mxCell id="Cw069byiY2gqhYTwoMly-3" value="Грузы" style="rounded=0;whiteSpace=wrap;html=1;fillColor=#d5e8d4;strokeColor=#82b366;" parent="1" vertex="1">
                    <mxGeometry x="597.5" y="970" width="120" height="60" as="geometry"/>
                </mxCell>
                <mxCell id="Cw069byiY2gqhYTwoMly-4" value="" style="endArrow=none;html=1;rounded=0;exitX=0.5;exitY=1;exitDx=0;exitDy=0;" parent="1" source="Cw069byiY2gqhYTwoMly-1" target="Cw069byiY2gqhYTwoMly-3" edge="1">
                    <mxGeometry width="50" height="50" relative="1" as="geometry">
                        <mxPoint x="670" y="860" as="sourcePoint"/>
                        <mxPoint x="668" y="765" as="targetPoint"/>
                    </mxGeometry>
                </mxCell>
                <mxCell id="Cw069byiY2gqhYTwoMly-5" value="Наименование" style="ellipse;whiteSpace=wrap;html=1;fillColor=#f8cecc;strokeColor=#b85450;" parent="1" vertex="1">
                    <mxGeometry x="432.5" y="930" width="97.5" height="60" as="geometry"/>
                </mxCell>
                <mxCell id="Cw069byiY2gqhYTwoMly-6" value="Ценность&lt;span style=&quot;font-family: monospace; font-size: 0px; text-align: start; text-wrap: nowrap;&quot;&gt;%3CmxGraphModel%3E%3Croot%3E%3CmxCell%20id%3D%220%22%2F%3E%3CmxCell%20id%3D%221%22%20parent%3D%220%22%2F%3E%3CmxCell%20id%3D%222%22%20value%3D%22%D0%BD%D0%B0%D0%B8%D0%BC%D0%B5%D0%BD%D0%BE%D0%B2%D0%B0%D0%BD%D0%B8%D0%B5%22%20style%3D%22ellipse%3BwhiteSpace%3Dwrap%3Bhtml%3D1%3BfillColor%3D%23f8cecc%3BstrokeColor%3D%23b85450%3B%22%20vertex%3D%221%22%20parent%3D%221%22%3E%3CmxGeometry%20x%3D%22480%22%20y%3D%22920%22%20width%3D%2297.5%22%20height%3D%2260%22%20as%3D%22geometry%22%2F%3E%3C%2FmxCell%3E%3C%2Froot%3E%3C%2FmxGraphModel%3E&lt;/span&gt;" style="ellipse;whiteSpace=wrap;html=1;fillColor=#f8cecc;strokeColor=#b85450;" parent="1" vertex="1">
                    <mxGeometry x="482.5" y="1030" width="97.5" height="60" as="geometry"/>
                </mxCell>
                <mxCell id="Cw069byiY2gqhYTwoMly-7" value="Количество" style="ellipse;whiteSpace=wrap;html=1;fillColor=#f8cecc;strokeColor=#b85450;" parent="1" vertex="1">
                    <mxGeometry x="735" y="1040" width="97.5" height="60" as="geometry"/>
                </mxCell>
                <mxCell id="Cw069byiY2gqhYTwoMly-8" value="" style="endArrow=none;html=1;rounded=0;exitX=1;exitY=0.5;exitDx=0;exitDy=0;" parent="1" source="Cw069byiY2gqhYTwoMly-5" target="Cw069byiY2gqhYTwoMly-3" edge="1">
                    <mxGeometry width="50" height="50" relative="1" as="geometry">
                        <mxPoint x="668" y="910" as="sourcePoint"/>
                        <mxPoint x="668" y="980" as="targetPoint"/>
                    </mxGeometry>
                </mxCell>
                <mxCell id="Cw069byiY2gqhYTwoMly-9" value="" style="endArrow=none;html=1;rounded=0;exitX=0;exitY=1;exitDx=0;exitDy=0;entryX=1;entryY=0;entryDx=0;entryDy=0;" parent="1" source="Cw069byiY2gqhYTwoMly-3" target="Cw069byiY2gqhYTwoMly-6" edge="1">
                    <mxGeometry width="50" height="50" relative="1" as="geometry">
                        <mxPoint x="570" y="950" as="sourcePoint"/>
                        <mxPoint x="619" y="980" as="targetPoint"/>
                    </mxGeometry>
                </mxCell>
                <mxCell id="Cw069byiY2gqhYTwoMly-10" value="" style="endArrow=none;html=1;rounded=0;exitX=0.062;exitY=0.217;exitDx=0;exitDy=0;entryX=0.929;entryY=1.017;entryDx=0;entryDy=0;exitPerimeter=0;entryPerimeter=0;" parent="1" source="Cw069byiY2gqhYTwoMly-7" target="Cw069byiY2gqhYTwoMly-3" edge="1">
                    <mxGeometry width="50" height="50" relative="1" as="geometry">
                        <mxPoint x="608" y="1040" as="sourcePoint"/>
                        <mxPoint x="575" y="1049" as="targetPoint"/>
                    </mxGeometry>
                </mxCell>
                <mxCell id="Cw069byiY2gqhYTwoMly-11" value="&lt;font style=&quot;font-size: 18px;&quot;&gt;1&lt;/font&gt;" style="text;html=1;align=center;verticalAlign=middle;resizable=0;points=[];autosize=1;strokeColor=none;fillColor=none;" parent="1" vertex="1">
                    <mxGeometry x="627.5" y="755" width="30" height="40" as="geometry"/>
                </mxCell>
                <mxCell id="Cw069byiY2gqhYTwoMly-12" value="&lt;span style=&quot;font-size: 18px;&quot;&gt;N&lt;/span&gt;" style="text;html=1;align=center;verticalAlign=middle;resizable=0;points=[];autosize=1;strokeColor=none;fillColor=none;" parent="1" vertex="1">
                    <mxGeometry x="612.5" y="930" width="40" height="40" as="geometry"/>
                </mxCell>
            </root>
        </mxGraphModel>
    </diagram>
    <diagram name="Маленький вариант" id="c9riuxBmko2yBIIqOIz3">
        <mxGraphModel dx="1404" dy="779" grid="1" gridSize="10" guides="1" tooltips="1" connect="1" arrows="1" fold="1" page="1" pageScale="1" pageWidth="827" pageHeight="1169" math="0" shadow="0">
            <root>
                <mxCell id="0"/>
                <mxCell id="1" parent="0"/>
                <mxCell id="Ff3JbneCZzg7QOqK37aa-1" value="Транспорт" style="rounded=0;whiteSpace=wrap;html=1;fillColor=#d5e8d4;strokeColor=#82b366;" parent="1" vertex="1">
                    <mxGeometry x="610" y="240" width="170" height="80" as="geometry"/>
                </mxCell>
                <mxCell id="Ff3JbneCZzg7QOqK37aa-2" value="Грузоотправитель" style="rounded=0;whiteSpace=wrap;html=1;fillColor=#d5e8d4;strokeColor=#82b366;" parent="1" vertex="1">
                    <mxGeometry x="227.5" y="700" width="120" height="60" as="geometry"/>
                </mxCell>
                <mxCell id="Ff3JbneCZzg7QOqK37aa-3" value="Грузополучатель" style="rounded=0;whiteSpace=wrap;html=1;fillColor=#d5e8d4;strokeColor=#82b366;" parent="1" vertex="1">
                    <mxGeometry x="600" y="465" width="120" height="60" as="geometry"/>
                </mxCell>
                <mxCell id="Ff3JbneCZzg7QOqK37aa-4" value="Перевозки" style="rounded=0;whiteSpace=wrap;html=1;fillColor=#d5e8d4;strokeColor=#82b366;" parent="1" vertex="1">
                    <mxGeometry x="597.5" y="695" width="120" height="60" as="geometry"/>
                </mxCell>
                <mxCell id="Ff3JbneCZzg7QOqK37aa-7" value="Оплата&lt;div&gt;&lt;br&gt;&lt;/div&gt;" style="rounded=0;whiteSpace=wrap;html=1;fillColor=#d5e8d4;strokeColor=#82b366;" parent="1" vertex="1">
                    <mxGeometry x="970" y="700" width="120" height="60" as="geometry"/>
                </mxCell>
                <mxCell id="Ff3JbneCZzg7QOqK37aa-8" value="&lt;u&gt;Номер&lt;/u&gt;" style="ellipse;whiteSpace=wrap;html=1;fillColor=#f8cecc;strokeColor=#b85450;" parent="1" vertex="1">
                    <mxGeometry x="580" y="100" width="90" height="40" as="geometry"/>
                </mxCell>
                <mxCell id="Ff3JbneCZzg7QOqK37aa-9" value="Дата ТО" style="ellipse;whiteSpace=wrap;html=1;fillColor=#f8cecc;strokeColor=#b85450;" parent="1" vertex="1">
                    <mxGeometry x="480" y="150" width="80" height="50" as="geometry"/>
                </mxCell>
                <mxCell id="Ff3JbneCZzg7QOqK37aa-18" style="edgeStyle=orthogonalEdgeStyle;rounded=0;orthogonalLoop=1;jettySize=auto;html=1;exitX=0.5;exitY=0;exitDx=0;exitDy=0;entryX=0.5;entryY=0;entryDx=0;entryDy=0;" parent="1" source="Ff3JbneCZzg7QOqK37aa-10" target="Ff3JbneCZzg7QOqK37aa-10" edge="1">
                    <mxGeometry relative="1" as="geometry">
                        <mxPoint x="680" y="110" as="targetPoint"/>
                    </mxGeometry>
                </mxCell>
                <mxCell id="Ff3JbneCZzg7QOqK37aa-10" value="ФИО водителя" style="ellipse;whiteSpace=wrap;html=1;fillColor=#f8cecc;strokeColor=#b85450;" parent="1" vertex="1">
                    <mxGeometry x="800" y="130" width="80" height="40" as="geometry"/>
                </mxCell>
                <mxCell id="Ff3JbneCZzg7QOqK37aa-11" value="Грузоподъёмность" style="ellipse;whiteSpace=wrap;html=1;fillColor=#f8cecc;strokeColor=#b85450;" parent="1" vertex="1">
                    <mxGeometry x="860" y="180" width="120" height="60" as="geometry"/>
                </mxCell>
                <mxCell id="Ff3JbneCZzg7QOqK37aa-13" value="" style="endArrow=none;html=1;rounded=0;exitX=1;exitY=1;exitDx=0;exitDy=0;entryX=0.047;entryY=0.013;entryDx=0;entryDy=0;entryPerimeter=0;" parent="1" source="Ff3JbneCZzg7QOqK37aa-9" target="Ff3JbneCZzg7QOqK37aa-1" edge="1">
                    <mxGeometry width="50" height="50" relative="1" as="geometry">
                        <mxPoint x="510" y="100" as="sourcePoint"/>
                        <mxPoint x="560" y="50" as="targetPoint"/>
                    </mxGeometry>
                </mxCell>
                <mxCell id="Ff3JbneCZzg7QOqK37aa-14" value="" style="endArrow=none;html=1;rounded=0;exitX=0.925;exitY=0.788;exitDx=0;exitDy=0;entryX=0.694;entryY=-0.025;entryDx=0;entryDy=0;exitPerimeter=0;entryPerimeter=0;" parent="1" source="Ff3JbneCZzg7QOqK37aa-8" target="Ff3JbneCZzg7QOqK37aa-1" edge="1">
                    <mxGeometry width="50" height="50" relative="1" as="geometry">
                        <mxPoint x="550" y="30" as="sourcePoint"/>
                        <mxPoint x="600" y="-20" as="targetPoint"/>
                    </mxGeometry>
                </mxCell>
                <mxCell id="Ff3JbneCZzg7QOqK37aa-15" value="" style="endArrow=none;html=1;rounded=0;exitX=0.5;exitY=1;exitDx=0;exitDy=0;entryX=1;entryY=0;entryDx=0;entryDy=0;" parent="1" source="Ff3JbneCZzg7QOqK37aa-10" target="Ff3JbneCZzg7QOqK37aa-1" edge="1">
                    <mxGeometry width="50" height="50" relative="1" as="geometry">
                        <mxPoint x="720" y="120" as="sourcePoint"/>
                        <mxPoint x="770" y="70" as="targetPoint"/>
                    </mxGeometry>
                </mxCell>
                <mxCell id="Ff3JbneCZzg7QOqK37aa-17" value="" style="endArrow=none;html=1;rounded=0;entryX=1;entryY=0.5;entryDx=0;entryDy=0;" parent="1" source="Ff3JbneCZzg7QOqK37aa-11" target="Ff3JbneCZzg7QOqK37aa-1" edge="1">
                    <mxGeometry width="50" height="50" relative="1" as="geometry">
                        <mxPoint x="810" y="90" as="sourcePoint"/>
                        <mxPoint x="810" y="30" as="targetPoint"/>
                    </mxGeometry>
                </mxCell>
                <mxCell id="Ff3JbneCZzg7QOqK37aa-31" value="&lt;u&gt;Расчётный счёт&lt;/u&gt;" style="ellipse;whiteSpace=wrap;html=1;fillColor=#f8cecc;strokeColor=#b85450;" parent="1" vertex="1">
                    <mxGeometry x="90" y="700" width="87.5" height="70" as="geometry"/>
                </mxCell>
                <mxCell id="Ff3JbneCZzg7QOqK37aa-32" value="Наименование" style="ellipse;whiteSpace=wrap;html=1;fillColor=#f8cecc;strokeColor=#b85450;" parent="1" vertex="1">
                    <mxGeometry x="250" y="585" width="100" height="50" as="geometry"/>
                </mxCell>
                <mxCell id="Ff3JbneCZzg7QOqK37aa-33" value="Адрес" style="ellipse;whiteSpace=wrap;html=1;fillColor=#f8cecc;strokeColor=#b85450;" parent="1" vertex="1">
                    <mxGeometry x="110" y="620" width="67.5" height="50" as="geometry"/>
                </mxCell>
                <mxCell id="Ff3JbneCZzg7QOqK37aa-34" value="" style="endArrow=none;html=1;rounded=0;exitX=1.008;exitY=0.413;exitDx=0;exitDy=0;exitPerimeter=0;entryX=-0.008;entryY=0.633;entryDx=0;entryDy=0;entryPerimeter=0;" parent="1" source="Ff3JbneCZzg7QOqK37aa-31" target="Ff3JbneCZzg7QOqK37aa-2" edge="1">
                    <mxGeometry width="50" height="50" relative="1" as="geometry">
                        <mxPoint x="177.5" y="820" as="sourcePoint"/>
                        <mxPoint x="227.5" y="770" as="targetPoint"/>
                    </mxGeometry>
                </mxCell>
                <mxCell id="Ff3JbneCZzg7QOqK37aa-35" value="" style="endArrow=none;html=1;rounded=0;exitX=0.942;exitY=0.75;exitDx=0;exitDy=0;exitPerimeter=0;entryX=0.125;entryY=-0.033;entryDx=0;entryDy=0;entryPerimeter=0;" parent="1" source="Ff3JbneCZzg7QOqK37aa-33" target="Ff3JbneCZzg7QOqK37aa-2" edge="1">
                    <mxGeometry width="50" height="50" relative="1" as="geometry">
                        <mxPoint x="197.5" y="670" as="sourcePoint"/>
                        <mxPoint x="247.5" y="620" as="targetPoint"/>
                    </mxGeometry>
                </mxCell>
                <mxCell id="Ff3JbneCZzg7QOqK37aa-36" value="" style="endArrow=none;html=1;rounded=0;exitX=0.5;exitY=0;exitDx=0;exitDy=0;entryX=0.425;entryY=1;entryDx=0;entryDy=0;entryPerimeter=0;" parent="1" source="Ff3JbneCZzg7QOqK37aa-2" target="Ff3JbneCZzg7QOqK37aa-32" edge="1">
                    <mxGeometry width="50" height="50" relative="1" as="geometry">
                        <mxPoint x="357.5" y="740" as="sourcePoint"/>
                        <mxPoint x="407.5" y="690" as="targetPoint"/>
                    </mxGeometry>
                </mxCell>
                <mxCell id="Ff3JbneCZzg7QOqK37aa-40" value="&lt;u&gt;Расчётный счёт&lt;/u&gt;" style="ellipse;whiteSpace=wrap;html=1;fillColor=#f8cecc;strokeColor=#b85450;" parent="1" vertex="1">
                    <mxGeometry x="760" y="505" width="90" height="65" as="geometry"/>
                </mxCell>
                <mxCell id="Ff3JbneCZzg7QOqK37aa-41" value="Наименование" style="ellipse;whiteSpace=wrap;html=1;fillColor=#f8cecc;strokeColor=#b85450;" parent="1" vertex="1">
                    <mxGeometry x="770" y="430" width="100" height="55" as="geometry"/>
                </mxCell>
                <mxCell id="Ff3JbneCZzg7QOqK37aa-42" value="Адрес" style="ellipse;whiteSpace=wrap;html=1;fillColor=#f8cecc;strokeColor=#b85450;" parent="1" vertex="1">
                    <mxGeometry x="607.5" y="360" width="85" height="45" as="geometry"/>
                </mxCell>
                <mxCell id="Ff3JbneCZzg7QOqK37aa-43" value="" style="endArrow=none;html=1;rounded=0;exitX=0.017;exitY=0.388;exitDx=0;exitDy=0;entryX=1;entryY=1;entryDx=0;entryDy=0;exitPerimeter=0;" parent="1" source="Ff3JbneCZzg7QOqK37aa-40" target="Ff3JbneCZzg7QOqK37aa-3" edge="1">
                    <mxGeometry width="50" height="50" relative="1" as="geometry">
                        <mxPoint x="630" y="585" as="sourcePoint"/>
                        <mxPoint x="679" y="503" as="targetPoint"/>
                    </mxGeometry>
                </mxCell>
                <mxCell id="Ff3JbneCZzg7QOqK37aa-44" value="" style="endArrow=none;html=1;rounded=0;exitX=0.633;exitY=0.963;exitDx=0;exitDy=0;exitPerimeter=0;entryX=0.5;entryY=0;entryDx=0;entryDy=0;" parent="1" source="Ff3JbneCZzg7QOqK37aa-42" target="Ff3JbneCZzg7QOqK37aa-3" edge="1">
                    <mxGeometry width="50" height="50" relative="1" as="geometry">
                        <mxPoint x="650" y="435" as="sourcePoint"/>
                        <mxPoint x="695" y="463" as="targetPoint"/>
                    </mxGeometry>
                </mxCell>
                <mxCell id="Ff3JbneCZzg7QOqK37aa-45" value="" style="endArrow=none;html=1;rounded=0;exitX=1;exitY=0.5;exitDx=0;exitDy=0;entryX=0;entryY=0.5;entryDx=0;entryDy=0;" parent="1" source="Ff3JbneCZzg7QOqK37aa-3" target="Ff3JbneCZzg7QOqK37aa-41" edge="1">
                    <mxGeometry width="50" height="50" relative="1" as="geometry">
                        <mxPoint x="740" y="465" as="sourcePoint"/>
                        <mxPoint x="860" y="455" as="targetPoint"/>
                    </mxGeometry>
                </mxCell>
                <mxCell id="Ff3JbneCZzg7QOqK37aa-46" value="&lt;font style=&quot;font-size: 18px;&quot;&gt;1&lt;/font&gt;" style="text;html=1;align=center;verticalAlign=middle;resizable=0;points=[];autosize=1;strokeColor=none;fillColor=none;" parent="1" vertex="1">
                    <mxGeometry x="357.5" y="680" width="30" height="40" as="geometry"/>
                </mxCell>
                <mxCell id="Ff3JbneCZzg7QOqK37aa-56" value="Сведения о доставке" style="ellipse;whiteSpace=wrap;html=1;fillColor=#f8cecc;strokeColor=#b85450;" parent="1" vertex="1">
                    <mxGeometry x="410" y="790" width="80" height="60" as="geometry"/>
                </mxCell>
                <mxCell id="Ff3JbneCZzg7QOqK37aa-57" value="Сторона оплаты" style="ellipse;whiteSpace=wrap;html=1;fillColor=#f8cecc;strokeColor=#b85450;" parent="1" vertex="1">
                    <mxGeometry x="510" y="820" width="87.5" height="60" as="geometry"/>
                </mxCell>
                <mxCell id="Ff3JbneCZzg7QOqK37aa-58" value="Количество груза" style="ellipse;whiteSpace=wrap;html=1;fillColor=#f8cecc;strokeColor=#b85450;" parent="1" vertex="1">
                    <mxGeometry x="700" y="795" width="90" height="65" as="geometry"/>
                </mxCell>
                <mxCell id="Ff3JbneCZzg7QOqK37aa-59" value="Дата доставки" style="ellipse;whiteSpace=wrap;html=1;fillColor=#f8cecc;strokeColor=#b85450;" parent="1" vertex="1">
                    <mxGeometry x="810" y="770" width="80" height="50" as="geometry"/>
                </mxCell>
                <mxCell id="Ff3JbneCZzg7QOqK37aa-60" value="Дата погрузки" style="ellipse;whiteSpace=wrap;html=1;fillColor=#f8cecc;strokeColor=#b85450;" parent="1" vertex="1">
                    <mxGeometry x="740" y="620" width="87.5" height="60" as="geometry"/>
                </mxCell>
                <mxCell id="Ff3JbneCZzg7QOqK37aa-61" value="" style="endArrow=none;html=1;rounded=0;entryX=0.213;entryY=0.888;entryDx=0;entryDy=0;entryPerimeter=0;exitX=1;exitY=0;exitDx=0;exitDy=0;" parent="1" source="Ff3JbneCZzg7QOqK37aa-4" target="Ff3JbneCZzg7QOqK37aa-60" edge="1">
                    <mxGeometry width="50" height="50" relative="1" as="geometry">
                        <mxPoint x="637.5" y="750" as="sourcePoint"/>
                        <mxPoint x="687.5" y="700" as="targetPoint"/>
                    </mxGeometry>
                </mxCell>
                <mxCell id="Ff3JbneCZzg7QOqK37aa-62" value="" style="endArrow=none;html=1;rounded=0;entryX=0;entryY=0.5;entryDx=0;entryDy=0;exitX=1;exitY=1;exitDx=0;exitDy=0;" parent="1" source="Ff3JbneCZzg7QOqK37aa-4" target="Ff3JbneCZzg7QOqK37aa-59" edge="1">
                    <mxGeometry width="50" height="50" relative="1" as="geometry">
                        <mxPoint x="618.5" y="705" as="sourcePoint"/>
                        <mxPoint x="608.5" y="682" as="targetPoint"/>
                    </mxGeometry>
                </mxCell>
                <mxCell id="Ff3JbneCZzg7QOqK37aa-63" value="" style="endArrow=none;html=1;rounded=0;entryX=0.229;entryY=0.075;entryDx=0;entryDy=0;entryPerimeter=0;exitX=0.75;exitY=1;exitDx=0;exitDy=0;" parent="1" source="Ff3JbneCZzg7QOqK37aa-4" target="Ff3JbneCZzg7QOqK37aa-58" edge="1">
                    <mxGeometry width="50" height="50" relative="1" as="geometry">
                        <mxPoint x="645.5" y="702" as="sourcePoint"/>
                        <mxPoint x="682.5" y="664" as="targetPoint"/>
                    </mxGeometry>
                </mxCell>
                <mxCell id="Ff3JbneCZzg7QOqK37aa-64" value="" style="endArrow=none;html=1;rounded=0;exitX=0.25;exitY=1;exitDx=0;exitDy=0;" parent="1" source="Ff3JbneCZzg7QOqK37aa-4" target="Ff3JbneCZzg7QOqK37aa-57" edge="1">
                    <mxGeometry width="50" height="50" relative="1" as="geometry">
                        <mxPoint x="736.5" y="765" as="sourcePoint"/>
                        <mxPoint x="777.5" y="750" as="targetPoint"/>
                    </mxGeometry>
                </mxCell>
                <mxCell id="Ff3JbneCZzg7QOqK37aa-65" value="" style="endArrow=none;html=1;rounded=0;exitX=0;exitY=1;exitDx=0;exitDy=0;entryX=1;entryY=0;entryDx=0;entryDy=0;" parent="1" source="Ff3JbneCZzg7QOqK37aa-4" target="Ff3JbneCZzg7QOqK37aa-56" edge="1">
                    <mxGeometry width="50" height="50" relative="1" as="geometry">
                        <mxPoint x="728.5" y="762" as="sourcePoint"/>
                        <mxPoint x="793.5" y="783" as="targetPoint"/>
                    </mxGeometry>
                </mxCell>
                <mxCell id="Ff3JbneCZzg7QOqK37aa-66" value="&lt;span style=&quot;font-size: 18px;&quot;&gt;N&lt;/span&gt;" style="text;html=1;align=center;verticalAlign=middle;resizable=0;points=[];autosize=1;strokeColor=none;fillColor=none;" parent="1" vertex="1">
                    <mxGeometry x="552.5" y="675" width="40" height="40" as="geometry"/>
                </mxCell>
                <mxCell id="Ff3JbneCZzg7QOqK37aa-71" value="Получает" style="shape=rhombus;perimeter=rhombusPerimeter;whiteSpace=wrap;html=1;align=center;fillColor=#e1d5e7;strokeColor=#9673a6;" parent="1" vertex="1">
                    <mxGeometry x="600" y="570" width="120" height="60" as="geometry"/>
                </mxCell>
                <mxCell id="Ff3JbneCZzg7QOqK37aa-72" value="" style="endArrow=none;html=1;rounded=0;entryX=0.5;entryY=1;entryDx=0;entryDy=0;exitX=0.5;exitY=0;exitDx=0;exitDy=0;" parent="1" source="Ff3JbneCZzg7QOqK37aa-71" target="Ff3JbneCZzg7QOqK37aa-3" edge="1">
                    <mxGeometry width="50" height="50" relative="1" as="geometry">
                        <mxPoint x="710" y="570" as="sourcePoint"/>
                        <mxPoint x="760" y="520" as="targetPoint"/>
                    </mxGeometry>
                </mxCell>
                <mxCell id="Ff3JbneCZzg7QOqK37aa-73" value="" style="endArrow=none;html=1;rounded=0;entryX=0.5;entryY=1;entryDx=0;entryDy=0;" parent="1" target="Ff3JbneCZzg7QOqK37aa-71" edge="1">
                    <mxGeometry width="50" height="50" relative="1" as="geometry">
                        <mxPoint x="658" y="695" as="sourcePoint"/>
                        <mxPoint x="640" y="630" as="targetPoint"/>
                    </mxGeometry>
                </mxCell>
                <mxCell id="Ff3JbneCZzg7QOqK37aa-74" value="&lt;font style=&quot;font-size: 18px;&quot;&gt;1&lt;/font&gt;" style="text;html=1;align=center;verticalAlign=middle;resizable=0;points=[];autosize=1;strokeColor=none;fillColor=none;" parent="1" vertex="1">
                    <mxGeometry x="657.5" y="525" width="30" height="40" as="geometry"/>
                </mxCell>
                <mxCell id="Ff3JbneCZzg7QOqK37aa-75" value="&lt;span style=&quot;font-size: 18px;&quot;&gt;N&lt;/span&gt;" style="text;html=1;align=center;verticalAlign=middle;resizable=0;points=[];autosize=1;strokeColor=none;fillColor=none;" parent="1" vertex="1">
                    <mxGeometry x="652.5" y="655" width="40" height="40" as="geometry"/>
                </mxCell>
                <mxCell id="Ff3JbneCZzg7QOqK37aa-76" value="Отправляет" style="shape=rhombus;perimeter=rhombusPerimeter;whiteSpace=wrap;html=1;align=center;fillColor=#e1d5e7;strokeColor=#9673a6;" parent="1" vertex="1">
                    <mxGeometry x="410" y="700" width="120" height="60" as="geometry"/>
                </mxCell>
                <mxCell id="Ff3JbneCZzg7QOqK37aa-77" value="" style="endArrow=none;html=1;rounded=0;exitX=1;exitY=0.5;exitDx=0;exitDy=0;entryX=0;entryY=0.5;entryDx=0;entryDy=0;" parent="1" source="Ff3JbneCZzg7QOqK37aa-2" target="Ff3JbneCZzg7QOqK37aa-76" edge="1">
                    <mxGeometry width="50" height="50" relative="1" as="geometry">
                        <mxPoint x="350" y="760" as="sourcePoint"/>
                        <mxPoint x="400" y="710" as="targetPoint"/>
                    </mxGeometry>
                </mxCell>
                <mxCell id="Ff3JbneCZzg7QOqK37aa-78" value="" style="endArrow=none;html=1;rounded=0;exitX=1;exitY=0.5;exitDx=0;exitDy=0;entryX=0;entryY=0.5;entryDx=0;entryDy=0;" parent="1" source="Ff3JbneCZzg7QOqK37aa-76" target="Ff3JbneCZzg7QOqK37aa-4" edge="1">
                    <mxGeometry width="50" height="50" relative="1" as="geometry">
                        <mxPoint x="518" y="690" as="sourcePoint"/>
                        <mxPoint x="580" y="690" as="targetPoint"/>
                    </mxGeometry>
                </mxCell>
                <mxCell id="Ff3JbneCZzg7QOqK37aa-83" value="&lt;div&gt;Включает&lt;/div&gt;" style="shape=rhombus;perimeter=rhombusPerimeter;whiteSpace=wrap;html=1;align=center;fillColor=#e1d5e7;strokeColor=#9673a6;" parent="1" vertex="1">
                    <mxGeometry x="790" y="695" width="105" height="60" as="geometry"/>
                </mxCell>
                <mxCell id="Ff3JbneCZzg7QOqK37aa-84" value="" style="endArrow=none;html=1;rounded=0;exitX=1;exitY=0.5;exitDx=0;exitDy=0;" parent="1" source="Ff3JbneCZzg7QOqK37aa-4" target="Ff3JbneCZzg7QOqK37aa-83" edge="1">
                    <mxGeometry width="50" height="50" relative="1" as="geometry">
                        <mxPoint x="730" y="750" as="sourcePoint"/>
                        <mxPoint x="780" y="700" as="targetPoint"/>
                    </mxGeometry>
                </mxCell>
                <mxCell id="Ff3JbneCZzg7QOqK37aa-85" value="" style="endArrow=none;html=1;rounded=0;exitX=1;exitY=0.5;exitDx=0;exitDy=0;entryX=0.006;entryY=0.394;entryDx=0;entryDy=0;entryPerimeter=0;" parent="1" source="Ff3JbneCZzg7QOqK37aa-83" target="Ff3JbneCZzg7QOqK37aa-7" edge="1">
                    <mxGeometry width="50" height="50" relative="1" as="geometry">
                        <mxPoint x="880" y="694.31" as="sourcePoint"/>
                        <mxPoint x="952" y="694.31" as="targetPoint"/>
                    </mxGeometry>
                </mxCell>
                <mxCell id="Ff3JbneCZzg7QOqK37aa-86" value="Сумма оплаты" style="ellipse;whiteSpace=wrap;html=1;fillColor=#f8cecc;strokeColor=#b85450;" parent="1" vertex="1">
                    <mxGeometry x="960" y="790" width="80" height="50" as="geometry"/>
                </mxCell>
                <mxCell id="Ff3JbneCZzg7QOqK37aa-87" value="дата оплаты" style="ellipse;whiteSpace=wrap;html=1;fillColor=#f8cecc;strokeColor=#b85450;" parent="1" vertex="1">
                    <mxGeometry x="1100" y="770" width="80" height="50" as="geometry"/>
                </mxCell>
                <mxCell id="Ff3JbneCZzg7QOqK37aa-88" value="" style="endArrow=none;html=1;rounded=0;exitX=0.5;exitY=0;exitDx=0;exitDy=0;entryX=0.351;entryY=0.98;entryDx=0;entryDy=0;entryPerimeter=0;" parent="1" source="Ff3JbneCZzg7QOqK37aa-86" target="Ff3JbneCZzg7QOqK37aa-7" edge="1">
                    <mxGeometry width="50" height="50" relative="1" as="geometry">
                        <mxPoint x="1040" y="890" as="sourcePoint"/>
                        <mxPoint x="1090" y="840" as="targetPoint"/>
                    </mxGeometry>
                </mxCell>
                <mxCell id="Ff3JbneCZzg7QOqK37aa-89" value="" style="endArrow=none;html=1;rounded=0;entryX=0.926;entryY=1.003;entryDx=0;entryDy=0;entryPerimeter=0;" parent="1" source="Ff3JbneCZzg7QOqK37aa-87" target="Ff3JbneCZzg7QOqK37aa-7" edge="1">
                    <mxGeometry width="50" height="50" relative="1" as="geometry">
                        <mxPoint x="1078" y="840" as="sourcePoint"/>
                        <mxPoint x="1090" y="789" as="targetPoint"/>
                    </mxGeometry>
                </mxCell>
                <mxCell id="Ff3JbneCZzg7QOqK37aa-92" value="&lt;font style=&quot;font-size: 18px;&quot;&gt;1&lt;/font&gt;" style="text;html=1;align=center;verticalAlign=middle;resizable=0;points=[];autosize=1;strokeColor=none;fillColor=none;" parent="1" vertex="1">
                    <mxGeometry x="720" y="690" width="30" height="40" as="geometry"/>
                </mxCell>
                <mxCell id="Ff3JbneCZzg7QOqK37aa-93" value="&lt;span style=&quot;font-size: 18px;&quot;&gt;N&lt;/span&gt;" style="text;html=1;align=center;verticalAlign=middle;resizable=0;points=[];autosize=1;strokeColor=none;fillColor=none;" parent="1" vertex="1">
                    <mxGeometry x="920" y="680" width="40" height="40" as="geometry"/>
                </mxCell>
                <mxCell id="4" value="Наименование груза" style="ellipse;whiteSpace=wrap;html=1;fillColor=#f8cecc;strokeColor=#b85450;" vertex="1" parent="1">
                    <mxGeometry x="460" y="580" width="92.5" height="75" as="geometry"/>
                </mxCell>
                <mxCell id="5" value="" style="endArrow=none;html=1;rounded=0;entryX=0.941;entryY=0.68;entryDx=0;entryDy=0;entryPerimeter=0;exitX=0.071;exitY=0.05;exitDx=0;exitDy=0;exitPerimeter=0;" edge="1" parent="1" source="Ff3JbneCZzg7QOqK37aa-4" target="4">
                    <mxGeometry width="50" height="50" relative="1" as="geometry">
                        <mxPoint x="668" y="705" as="sourcePoint"/>
                        <mxPoint x="670" y="640" as="targetPoint"/>
                    </mxGeometry>
                </mxCell>
                <mxCell id="6" value="Ценность груза" style="ellipse;whiteSpace=wrap;html=1;fillColor=#f8cecc;strokeColor=#b85450;" vertex="1" parent="1">
                    <mxGeometry x="610" y="840" width="100" height="70" as="geometry"/>
                </mxCell>
                <mxCell id="7" value="" style="endArrow=none;html=1;rounded=0;exitX=0.5;exitY=1;exitDx=0;exitDy=0;entryX=0.5;entryY=0;entryDx=0;entryDy=0;" edge="1" parent="1" source="Ff3JbneCZzg7QOqK37aa-4" target="6">
                    <mxGeometry width="50" height="50" relative="1" as="geometry">
                        <mxPoint x="638" y="765" as="sourcePoint"/>
                        <mxPoint x="584" y="833" as="targetPoint"/>
                    </mxGeometry>
                </mxCell>
            </root>
        </mxGraphModel>
    </diagram>
</mxfile>